HIERARCHY
ROOT root
{
	OFFSET	0	13.1	24.9
	CHANNELS 6  Xposition Yposition Zposition Xrotation Yrotation Zrotation
	JOINT spine_1
	{
		OFFSET	0	9.99999	0
		CHANNELS 3  Xrotation Yrotation Zrotation
		JOINT spine_2
		{
			OFFSET	0	112	-10
			CHANNELS 3  Xrotation Yrotation Zrotation
			JOINT spine_3
			{
				OFFSET	0	206.5	19.3
				CHANNELS 3  Xrotation Yrotation Zrotation
				JOINT spine_4
				{
					OFFSET	0	110.4	14.6
					CHANNELS 3  Xrotation Yrotation Zrotation
					JOINT neck_1
					{
						OFFSET	0	71.8	-50.3
						CHANNELS 3  Xrotation Yrotation Zrotation
						JOINT neck_2
						{
							OFFSET	0	86.2	-25.8
							CHANNELS 3  Xrotation Yrotation Zrotation
							JOINT head_ee
							{
								OFFSET	0	179.8	-8.7
								CHANNELS 3  Xrotation Yrotation Zrotation
								End Site
								{
									OFFSET	1	0	0
								}
							}
						}
					}
					JOINT left_clavicle
					{
						OFFSET	-43.2	22.4	-70.8
						CHANNELS 3  Xrotation Yrotation Zrotation
						JOINT left_shoulder
						{
							OFFSET	-93.9	-5.79999	48.7
							CHANNELS 3  Xrotation Yrotation Zrotation
							JOINT left_elbow
							{
								OFFSET	-291.4	-30.8	15.2
								CHANNELS 3  Xrotation Yrotation Zrotation
								JOINT left_lowarm_twist
								{
									OFFSET	-110.7	-3.89999	13.6
									CHANNELS 3  Xrotation Yrotation Zrotation
									JOINT left_hand
									{
										OFFSET	-110.7	-3.89999	13.6
										CHANNELS 3  Xrotation Yrotation Zrotation
										JOINT left_ee
										{
											OFFSET	-80.8	-5.10001	12.1
											CHANNELS 3  Xrotation Yrotation Zrotation
											End Site
											{
												OFFSET	1	0	0
											}
										}
									}
								}
							}
						}
					}
					JOINT right_clavicle
					{
						OFFSET	43.2	22.4	-70.8
						CHANNELS 3  Xrotation Yrotation Zrotation
						JOINT right_shoulder
						{
							OFFSET	93.9	-5.79999	48.7
							CHANNELS 3  Xrotation Yrotation Zrotation
							JOINT right_elbow
							{
								OFFSET	291.4	-30.8	15.2
								CHANNELS 3  Xrotation Yrotation Zrotation
								JOINT right_lowarm_twist
								{
									OFFSET	110.7	-3.89999	13.6
									CHANNELS 3  Xrotation Yrotation Zrotation
									JOINT right_hand
									{
										OFFSET	110.7	-3.89999	13.6
										CHANNELS 3  Xrotation Yrotation Zrotation
										JOINT right_ee
										{
											OFFSET	80.8	-5.10001	12.1
											CHANNELS 3  Xrotation Yrotation Zrotation
											End Site
											{
												OFFSET	1	0	0
											}
										}
									}
								}
							}
						}
					}
				}
			}
		}
	}
	JOINT left_hip
	{
		OFFSET	-82.8	-127.5	0.300001
		CHANNELS 3  Xrotation Yrotation Zrotation
		JOINT left_knee
		{
			OFFSET	-28.2	-396.7	2.2
			CHANNELS 3  Xrotation Yrotation Zrotation
			JOINT left_ankle
			{
				OFFSET	-11.7	-411.3	35.4
				CHANNELS 3  Xrotation Yrotation Zrotation
				JOINT left_toes
				{
					OFFSET	0	-60	-88.6
					CHANNELS 3  Xrotation Yrotation Zrotation
					JOINT left_foot_ee
					{
						OFFSET	-22.5	-16.5	-42.2
						CHANNELS 3  Xrotation Yrotation Zrotation
						End Site
						{
							OFFSET	1	0	0
						}
					}
				}
			}
		}
	}
	JOINT right_hip
	{
		OFFSET	82.8	-127.5	0.300001
		CHANNELS 3  Xrotation Yrotation Zrotation
		JOINT right_knee
		{
			OFFSET	28.2	-396.7	2.2
			CHANNELS 3  Xrotation Yrotation Zrotation
			JOINT right_ankle
			{
				OFFSET	11.7	-411.3	35.4
				CHANNELS 3  Xrotation Yrotation Zrotation
				JOINT right_toes
				{
					OFFSET	0	-60	-88.6
					CHANNELS 3  Xrotation Yrotation Zrotation
					JOINT right_foot_ee
					{
						OFFSET	22.5	-16.5	-42.2
						CHANNELS 3  Xrotation Yrotation Zrotation
						End Site
						{
							OFFSET	1	0	0
						}
					}
				}
			}
		}
	}
}
MOTION
Frames: 14
Frame Time: 0.02
2800.94 716.97 -1473.77 -8.63108108909 73.2013517789 14.5253770598 2.65598 -0.530363 -3.10486 2.66128 -0.331817 -3.13228 2.67836 0.187222 -3.14423 2.6647 -0.311449 -3.13437 -15.7011 6.73192 4.39936 -15.7445 10.3399 6.45085 -0.0 0.0 -0.0 9.8038 7.00591 18.782 3.54289 -24.8289 68.381 2.7805 -54.0098 1.41724 -11.5521 -0.547171 1.36941 -0.921544 15.4796 0.629539 -0.0 0.0 -0.0 0.565805 -20.4873 -3.20877 -17.7721 24.6198 -68.0433 0.22902 6.47267 -0.01295 -61.7834 5.50533 -5.15323 2.24443 2.53706 -14.1478 0.0 0.0 0.0 -0.783126 14.2464 -11.4465 -6.43648 0.210994 0.964758 40.9863 12.2641 -4.98351 -36.5319 0.0 0.0 -0.0 0.0 -0.0 30.1029 -39.7029 4.00487 -0.23506 -0.00960739 -0.0347928 3.28431 30.9615 0.615229 -22.8362 0.0 0.0 0.0 0.0 0.0 
2771.82655316 709.586 -1495.87150477 -5.75814745084 74.0161992307 11.2099834417 2.51475 -0.526451 -2.80949 2.51907 -0.346683 -2.83727 2.53558 0.131159 -2.85535 2.52434 -0.32125 -2.84026 -15.3292 4.25903 -1.38845 -15.3966 8.96761 0.129738 -0.0 0.0 -0.0 9.55827 10.2905 18.006 0.550246 -24.0972 68.8664 2.74979 -53.7069 1.39244 -9.41638 -0.42532 1.12487 -0.173818 17.1395 5.91016 -0.0 0.0 -0.0 1.29025 -21.0529 -4.30507 -17.6793 25.4444 -67.0916 0.235535 6.65517 -0.0136947 -61.8309 5.51129 -5.15452 2.45235 3.46828 -15.2088 0.0 0.0 0.0 -2.81297 15.0448 -11.9363 -10.3579 0.285957 1.56173 41.1899 10.7064 -4.98533 -34.4536 0.0 0.0 -0.0 0.0 -0.0 30.2051 -39.1521 4.86374 -4.49035 -0.158661 -0.670693 -3.94556 29.6092 -0.740765 -22.7693 0.0 0.0 0.0 0.0 0.0 
2762.08981731 706.168 -1508.09279898 -5.28012702313 73.5804151588 10.5304837182 2.53387 -0.555541 -2.70208 2.53785 -0.382541 -2.73192 2.55548 0.0772282 -2.75747 2.54505 -0.359067 -2.7351 -16.5174 3.07935 -2.9526 -16.5533 7.58558 -1.67063 -0.0 0.0 -0.0 9.00246 10.7968 16.9375 -0.403074 -24.3831 69.3484 2.75862 -53.7944 1.39956 -8.0967 -0.354629 0.971597 0.333171 17.7039 9.23775 -0.0 0.0 -0.0 1.94475 -21.2869 -5.26156 -17.3238 25.834 -66.9625 0.243943 6.89049 -0.0146862 -62.2077 5.55852 -5.16459 2.68273 3.66952 -16.738 0.0 0.0 0.0 -2.34991 15.2886 -12.4114 -11.266 0.297476 1.70058 41.1372 9.66877 -4.97243 -33.0791 0.0 0.0 -0.0 0.0 -0.0 30.2092 -39.1394 4.73701 -5.83124 -0.19579 -0.873122 -6.33375 28.9732 -1.1852 -23.4729 0.0 0.0 0.0 0.0 0.0 
2750.22587612 702.83 -1518.72260713 -4.88259296022 73.5327354335 9.75733375288 2.42541 -0.515887 -2.50944 2.42884 -0.355212 -2.53715 2.44416 0.0767678 -2.56073 2.43516 -0.328482 -2.54075 -15.6368 2.47581 -3.36379 -15.6474 6.70354 -2.32305 -0.0 0.0 -0.0 8.56387 11.2918 16.101 -2.04027 -24.7726 69.6978 2.67848 -52.9865 1.33523 -7.16631 -0.306927 0.862589 0.559092 18.7095 10.9923 -0.0 0.0 -0.0 2.21883 -20.9427 -5.63884 -16.6493 26.2454 -66.9453 0.254933 7.19774 -0.016034 -62.1795 5.55498 -5.16385 2.694 3.90759 -16.7175 0.0 0.0 0.0 -1.99296 15.479 -12.6997 -12.1295 0.306387 1.83278 40.7274 9.5329 -4.93635 -32.939 0.0 0.0 -0.0 0.0 -0.0 30.1602 -38.7339 5.28132 -6.57098 -0.214242 -0.985144 -7.76708 28.6007 -1.45024 -23.9672 0.0 0.0 0.0 0.0 0.0 
2727.27905057 703.894 -1540.06665927 -5.03922125562 74.0690700586 9.25534992147 2.15009 -0.330339 -2.18997 2.15274 -0.190351 -2.20655 2.1599 0.194704 -2.20617 2.15314 -0.156075 -2.20923 -13.7626 1.60289 -5.39812 -13.7092 6.37612 -4.64198 -0.0 0.0 -0.0 7.99413 12.1856 15.017 -5.83666 -24.2937 69.6264 2.25222 -48.1233 1.00576 -5.22667 -0.213218 0.632955 1.89384 18.9708 19.4452 -0.0 0.0 -0.0 3.06549 -19.5187 -6.82948 -15.0071 26.6878 -66.8804 0.203684 5.76174 -0.01025 -61.9418 5.52518 -5.15752 2.85079 3.65977 -17.9276 0.0 0.0 0.0 -1.12948 15.2588 -13.5516 -16.5029 0.320884 2.50346 39.7331 9.29004 -4.84812 -30.7831 0.0 0.0 -0.0 0.0 -0.0 28.2705 -38.9734 4.6811 -5.54336 -0.188219 -0.82959 -11.948 29.0266 -2.25834 -24.9409 0.0 0.0 0.0 0.0 0.0 
2728.67659984 703.894 -1541.58728024 -4.697660354 72.8793015296 8.89909106257 2.15009 -0.330339 -2.18997 2.15274 -0.190351 -2.20655 2.1599 0.194704 -2.20617 2.15314 -0.156075 -2.20923 -13.7626 1.60289 -5.39812 -13.7092 6.37612 -4.64198 -0.0 0.0 -0.0 7.99413 12.1856 15.017 -5.83666 -24.2937 69.6264 2.25222 -48.1233 1.00576 -5.22667 -0.213218 0.632955 1.89384 18.9708 19.4452 -0.0 0.0 -0.0 3.06549 -19.5187 -6.82948 -15.0071 26.6878 -66.8804 0.203684 5.76174 -0.01025 -61.9418 5.52518 -5.15752 2.85079 3.65977 -17.9276 0.0 0.0 0.0 -1.12948 15.2588 -13.5516 -16.5029 0.320884 2.50346 39.7331 9.29004 -4.84812 -30.7831 0.0 0.0 -0.0 0.0 -0.0 28.2705 -38.9734 4.6811 -5.54336 -0.188219 -0.82959 -11.948 29.0266 -2.25834 -24.9409 0.0 0.0 0.0 0.0 0.0 
2728.86817277 703.894 -1541.79083667 -4.65510014916 72.7182307675 8.85453813642 2.15009 -0.330339 -2.18997 2.15274 -0.190351 -2.20655 2.1599 0.194704 -2.20617 2.15314 -0.156075 -2.20923 -13.7626 1.60289 -5.39812 -13.7092 6.37612 -4.64198 -0.0 0.0 -0.0 7.99413 12.1856 15.017 -5.83666 -24.2937 69.6264 2.25222 -48.1233 1.00576 -5.22667 -0.213218 0.632955 1.89384 18.9708 19.4452 -0.0 0.0 -0.0 3.06549 -19.5187 -6.82948 -15.0071 26.6878 -66.8804 0.203684 5.76174 -0.01025 -61.9418 5.52518 -5.15752 2.85079 3.65977 -17.9276 0.0 0.0 0.0 -1.12948 15.2588 -13.5516 -16.5029 0.320884 2.50346 39.7331 9.29004 -4.84812 -30.7831 0.0 0.0 -0.0 0.0 -0.0 28.2705 -38.9734 4.6811 -5.54336 -0.188219 -0.82959 -11.948 29.0266 -2.25834 -24.9409 0.0 0.0 0.0 0.0 0.0 
2728.99315 703.894 -1541.9230137 -4.62783386939 72.6134061904 8.82597460451 2.15009 -0.330339 -2.18997 2.15274 -0.190351 -2.20655 2.1599 0.194704 -2.20617 2.15314 -0.156075 -2.20923 -13.7626 1.60289 -5.39812 -13.7092 6.37612 -4.64198 -0.0 0.0 -0.0 7.99413 12.1856 15.017 -5.83666 -24.2937 69.6264 2.25222 -48.1233 1.00576 -5.22667 -0.213218 0.632955 1.89384 18.9708 19.4452 -0.0 0.0 -0.0 3.06549 -19.5187 -6.82948 -15.0071 26.6878 -66.8804 0.203684 5.76174 -0.01025 -61.9418 5.52518 -5.15752 2.85079 3.65977 -17.9276 0.0 0.0 0.0 -1.12948 15.2588 -13.5516 -16.5029 0.320884 2.50346 39.7331 9.29004 -4.84812 -30.7831 0.0 0.0 -0.0 0.0 -0.0 28.2705 -38.9734 4.6811 -5.54336 -0.188219 -0.82959 -11.948 29.0266 -2.25834 -24.9409 0.0 0.0 0.0 0.0 0.0 
2710.40057867 709.732 -1554.73967486 -4.33166607603 73.8544284771 8.15095674973 1.99668 -0.390604 -1.976 1.99881 -0.2641 -1.99684 2.00802 0.0910203 -2.01216 2.00244 -0.227841 -2.0013 -14.8333 1.34672 -5.95414 -14.7652 6.13085 -5.195 -0.0 0.0 -0.0 7.67332 14.5843 14.2796 -7.58772 -23.6533 69.4301 1.92323 -43.6082 0.769458 -3.35365 -0.130168 0.408363 3.3183 18.9799 28.9975 -0.0 0.0 -0.0 3.6237 -18.825 -7.6551 -14.4671 26.5742 -66.5886 0.206759 5.84813 -0.010561 -61.8556 5.51438 -5.15519 3.25288 7.64356 -19.0587 0.0 0.0 0.0 -2.411 15.1392 -13.8331 -15.9826 0.321843 2.42365 33.7913 6.83803 -4.28039 -30.2733 0.0 0.0 -0.0 0.0 -0.0 26.5149 -38.5064 4.4527 -6.16723 -0.20435 -0.923974 -11.0341 28.3825 -2.06521 -22.5867 0.0 0.0 0.0 0.0 0.0 
2696.90220927 714.532 -1564.44070499 -2.66071875199 75.2621457045 6.20203655362 1.86308 -0.346574 -1.79666 1.86485 -0.231565 -1.81506 1.87225 0.0954346 -1.82728 1.86764 -0.194299 -1.81943 -15.5331 0.908113 -6.28087 -15.4496 5.41666 -5.61733 -0.0 0.0 -0.0 7.26493 14.731 13.5802 -9.67824 -22.259 69.132 1.70387 -40.1626 0.622937 -3.62093 -0.141569 0.440574 3.16027 19.9612 28.132 -0.0 0.0 -0.0 4.00022 -18.4935 -8.22555 -13.8222 26.9789 -66.9696 0.231374 6.53863 -0.0132166 -61.9995 5.53241 -5.15906 3.23474 4.58554 -20.2718 0.0 0.0 0.0 -2.14212 13.1548 -13.9086 -19.4875 0.301384 2.96093 30.6968 11.0425 -3.97703 -29.0327 0.0 0.0 -0.0 0.0 -0.0 25.0359 -38.4644 4.62548 -6.63614 -0.215797 -0.995022 -8.86736 29.202 -1.67237 -24.1363 0.0 0.0 0.0 0.0 0.0 
2697.80645288 714.532 -1565.46792857 -2.56421214784 74.6945580616 6.10211666941 1.86308 -0.346574 -1.79666 1.86485 -0.231565 -1.81506 1.87225 0.0954346 -1.82728 1.86764 -0.194299 -1.81943 -15.5331 0.908113 -6.28087 -15.4496 5.41666 -5.61733 -0.0 0.0 -0.0 7.26493 14.731 13.5802 -9.67824 -22.259 69.132 1.70387 -40.1626 0.622937 -3.62093 -0.141569 0.440574 3.16027 19.9612 28.132 -0.0 0.0 -0.0 4.00022 -18.4935 -8.22555 -13.8222 26.9789 -66.9696 0.231374 6.53863 -0.0132166 -61.9995 5.53241 -5.15906 3.23474 4.58554 -20.2718 0.0 0.0 0.0 -2.14212 13.1548 -13.9086 -19.4875 0.301384 2.96093 30.6968 11.0425 -3.97703 -29.0327 0.0 0.0 -0.0 0.0 -0.0 25.0359 -38.4644 4.62548 -6.63614 -0.215797 -0.995022 -8.86736 29.202 -1.67237 -24.1363 0.0 0.0 0.0 0.0 0.0 
2662.98321192 715.642 -1584.00299212 2.58001818309 76.8023368514 0.158248918863 1.75641 0.069546 -1.348 1.7574 0.155174 -1.34084 1.75371 0.394279 -1.29093 1.75143 0.185471 -1.33699 -16.91 2.04416 -5.60422 -16.8773 7.07333 -4.51371 -0.0 0.0 -0.0 7.03209 17.1314 13.0283 -12.9313 -19.1416 67.9862 1.22942 -31.3408 0.3449 -1.63723 -0.0605563 0.200297 4.01667 18.8016 34.0293 -0.0 0.0 -0.0 4.50414 -17.6929 -9.00411 -13.1878 26.99 -67.7071 0.23369 6.60351 -0.0134816 -61.6909 5.49376 -5.1507 3.46925 6.32245 -21.2027 0.0 0.0 0.0 -1.90098 9.61958 -13.2576 -27.2416 0.139797 4.13897 26.982 15.5195 -3.60174 -27.8585 0.0 0.0 -0.0 0.0 -0.0 19.9664 -36.468 3.1878 -6.5911 -0.214723 -0.988194 -1.32291 30.2442 -0.24887 -24.2344 0.0 0.0 0.0 0.0 0.0 
2665.80313637 715.642 -1587.44240658 2.33053764489 75.3605377001 0.415255766228 1.75641 0.069546 -1.348 1.7574 0.155174 -1.34084 1.75371 0.394279 -1.29093 1.75143 0.185471 -1.33699 -16.91 2.04416 -5.60422 -16.8773 7.07333 -4.51371 -0.0 0.0 -0.0 7.03209 17.1314 13.0283 -12.9313 -19.1416 67.9862 1.22942 -31.3408 0.3449 -1.63723 -0.0605563 0.200297 4.01667 18.8016 34.0293 -0.0 0.0 -0.0 4.50414 -17.6929 -9.00411 -13.1878 26.99 -67.7071 0.23369 6.60351 -0.0134816 -61.6909 5.49376 -5.1507 3.46925 6.32245 -21.2027 0.0 0.0 0.0 -1.90098 9.61958 -13.2576 -27.2416 0.139797 4.13897 26.982 15.5195 -3.60174 -27.8585 0.0 0.0 -0.0 0.0 -0.0 19.9664 -36.468 3.1878 -6.5911 -0.214723 -0.988194 -1.32291 30.2442 -0.24887 -24.2344 0.0 0.0 0.0 0.0 0.0 
2648.54260144 715.456 -1597.78053478 4.14763901777 77.0759428917 -1.81269079474 1.76839 -0.0335661 -1.11797 1.76909 0.0376366 -1.11784 1.76834 0.238161 -1.09282 1.76668 0.0625918 -1.11672 -16.6925 2.04898 -5.90446 -16.6518 7.27189 -4.8065 -0.0 0.0 -0.0 6.81391 20.3325 12.4446 -13.6427 -15.1704 66.3429 1.11996 -29.0204 0.289863 1.71961 0.0574069 -0.212121 4.83688 15.2072 39.6919 -0.0 0.0 -0.0 4.88288 -17.7224 -9.5942 -12.0065 25.5466 -68.0247 0.249139 7.03583 -0.0153162 -62.0197 5.53494 -5.1596 3.5136 7.02483 -21.2091 0.0 0.0 0.0 -1.2909 8.24695 -13.1633 -29.9642 0.0454341 4.54612 24.283 21.4239 -3.35654 -26.8195 0.0 0.0 -0.0 0.0 -0.0 17.3256 -34.9775 2.39187 -6.21785 -0.205614 -0.931639 3.98675 30.1727 0.736777 -23.4521 0.0 0.0 0.0 0.0 0.0 
